<?xml version="1.0" encoding="UTF-8" standalone="no"?>
<!-- Created with Inkscape (http://www.inkscape.org/) -->

<svg
   width="77.548996mm"
   height="19.887104mm"
   viewBox="0 0 77.548996 19.887104"
   version="1.1"
   id="svg1"
   inkscape:version="1.3.2 (1:1.3.2+202311252150+091e20ef0f)"
   sodipodi:docname="CommandFS.svg"
   xmlns:inkscape="http://www.inkscape.org/namespaces/inkscape"
   xmlns:sodipodi="http://sodipodi.sourceforge.net/DTD/sodipodi-0.dtd"
   xmlns="http://www.w3.org/2000/svg"
   xmlns:svg="http://www.w3.org/2000/svg">
  <sodipodi:namedview
     id="namedview1"
     pagecolor="#000000"
     bordercolor="#666666"
     borderopacity="1.0"
     inkscape:showpageshadow="2"
     inkscape:pageopacity="0.0"
     inkscape:pagecheckerboard="0"
     inkscape:deskcolor="#d1d1d1"
     inkscape:document-units="mm"
     inkscape:zoom="2.36853"
     inkscape:cx="95.417833"
     inkscape:cy="18.788025"
     inkscape:window-width="1366"
     inkscape:window-height="731"
     inkscape:window-x="0"
     inkscape:window-y="0"
     inkscape:window-maximized="1"
     inkscape:current-layer="layer1" />
  <defs
     id="defs1" />
  <g
     inkscape:label="Layer 1"
     inkscape:groupmode="layer"
     id="layer1"
     transform="translate(-54.671303,-172.73711)">
    <text
       xml:space="preserve"
       style="font-size:16.9333px;line-height:1.25;font-family:'Jersey 15';-inkscape-font-specification:'Jersey 15, ';font-variant-ligatures:none;fill:#ffffff;fill-opacity:1;stroke-width:0.264583"
       x="54.044144"
       y="187.91418"
       id="text1-5"><tspan
         sodipodi:role="line"
         id="tspan1-3"
         style="font-size:16.9333px;fill:#ffffff;fill-opacity:1;stroke-width:0.264583"
         x="54.044144"
         y="187.91418">Command</tspan></text>
    <text
       xml:space="preserve"
       style="font-size:16.9333px;line-height:1.25;font-family:'Jersey 15';-inkscape-font-specification:'Jersey 15, ';font-variant-ligatures:none;fill:#ffffff;fill-opacity:1;stroke-width:0.264583"
       x="55.102478"
       y="186.85587"
       id="text1-9"><tspan
         sodipodi:role="line"
         id="tspan1-36"
         style="font-size:16.9333px;fill:#ffffff;fill-opacity:1;stroke-width:0.264583"
         x="55.102478"
         y="186.85587">Command</tspan></text>
    <text
       xml:space="preserve"
       style="font-size:16.9333px;line-height:1.25;font-family:'Jersey 15';-inkscape-font-specification:'Jersey 15, ';font-variant-ligatures:none;display:inline;fill:#ffffff;fill-opacity:1;stroke-width:0.264583"
       x="54.044144"
       y="186.85587"
       id="text1-6"><tspan
         sodipodi:role="line"
         id="tspan1-1"
         style="font-size:16.9333px;fill:#ffffff;fill-opacity:1;stroke-width:0.264583"
         x="54.044144"
         y="186.85587">Command</tspan></text>
    <text
       xml:space="preserve"
       style="font-size:16.9333px;line-height:1.25;font-family:'Jersey 15';-inkscape-font-specification:'Jersey 15, ';font-variant-ligatures:none;display:inline;fill:#ffffff;fill-opacity:1;stroke-width:0.264583"
       x="55.102478"
       y="187.91418"
       id="text1-2"><tspan
         sodipodi:role="line"
         id="tspan1-0"
         style="font-size:16.9333px;fill:#ffffff;fill-opacity:1;stroke-width:0.264583"
         x="55.102478"
         y="187.91418">Command</tspan></text>
    <text
       xml:space="preserve"
       style="font-size:16.9333px;line-height:1.25;font-family:'Jersey 15';-inkscape-font-specification:'Jersey 15, ';font-variant-ligatures:none;display:inline;stroke-width:0.264583"
       x="54.573311"
       y="187.38503"
       id="text1"><tspan
         sodipodi:role="line"
         id="tspan1"
         style="font-size:16.9333px;stroke-width:0.264583"
         x="54.573311"
         y="187.38503">Command</tspan></text>
    <text
       xml:space="preserve"
       style="font-style:normal;font-variant:normal;font-weight:normal;font-stretch:normal;font-size:19.7556px;line-height:1.25;font-family:'Jersey 25 Charted';-inkscape-font-specification:'Jersey 25 Charted';font-variant-ligatures:none;fill:#182b76;fill-opacity:1;stroke:none;stroke-width:0.264583;stroke-opacity:1"
       x="113.4284"
       y="188.68831"
       id="text2"><tspan
         sodipodi:role="line"
         id="tspan2"
         style="font-style:normal;font-variant:normal;font-weight:normal;font-stretch:normal;font-size:19.7556px;font-family:'Jersey 25 Charted';-inkscape-font-specification:'Jersey 25 Charted';fill:#182b76;fill-opacity:1;stroke:none;stroke-width:0.264583;stroke-opacity:1"
         x="113.4284"
         y="188.68831">FS</tspan></text>
    <path
       style="color:#000000;fill:#000000;stroke:#ffffff;stroke-width:0.100854;stroke-dasharray:none;stroke-dashoffset:0;stroke-opacity:1;paint-order:normal"
       d="m 54.72173,189.91059 v 2.6632 h 0.006 v -2.6632 z m 0.01987,0 v 2.6632 h 0.01987 v -2.6632 z m 0.04769,0 v 2.6632 h 0.03378 v -2.6632 z m 0.07353,0 v 2.6632 h 0.04769 v -2.6632 z m 0.101351,0 v 2.6632 h 0.06161 v -2.6632 z m 0.129172,0 v 2.6632 h 0.07552 v -2.6632 z m 0.156993,0 v 2.6632 h 0.08744 v -2.6632 z m 0.182827,0 v 2.6632 h 0.101351 v -2.6632 z m 0.208663,0 v 2.6632 h 0.115261 v -2.6632 z m 0.238471,0 v 2.6632 h 0.129172 v -2.6632 z m 0.264305,0 v 2.6632 h 0.143082 v -2.6632 z m 0.292127,0 v 2.6632 h 0.155006 v -2.6632 z m 0.317962,0 v 2.6632 h 0.168916 v -2.6632 z m 0.345782,0 v 2.6632 h 0.182828 v -2.6632 z m 0.373605,0 v 2.6632 h 0.194751 v -2.6632 z m 0.399438,0 v 2.6632 h 0.210649 v -2.6632 z m 0.427261,0 v 2.6632 h 0.222573 v -2.6632 z m 0.453094,0 v 2.6632 h 0.238471 v -2.6632 z m 0.480917,0 v 2.6632 h 0.252381 v -2.6632 z m 0.508738,0 v 2.6632 h 0.264305 v -2.6632 z m 0.536559,0 v 2.6632 h 0.278216 v -2.6632 z m 0.562394,0 v 2.6632 h 0.292127 v -2.6632 z m 0.590216,0 v 2.6632 h 0.304051 v -2.6632 z m 0.61605,0 v 2.6632 h 0.317961 v -2.6632 z m 0.643871,0 v 2.6632 h 0.331872 v -2.6632 z m 0.671693,0 v 2.6632 h 0.345783 v -2.6632 z m 0.697527,0 v 2.6632 h 0.359694 v -2.6632 z m 0.72535,0 v 2.6632 h 0.373604 v -2.6632 z m 0.75317,0 v 2.6632 h 0.385528 v -2.6632 z m 0.779005,0 v 2.6632 H 66.7188 v -2.6632 z m 0.806827,0 v 2.6632 h 0.413349 v -2.6632 z m 0.834647,0 v 2.6632 h 0.427261 v -2.6632 z m 0.860484,0 v 2.6632 h 0.44117 v -2.6632 z m 0.888303,0 v 2.6632 h 0.453095 v -2.6632 z m 0.914139,0 v 2.6632 h 0.468993 v -2.6632 z m 0.94196,0 v 2.6632 h 0.482904 v -2.6632 z m 0.969782,0 v 2.6632 h 0.494827 v -2.6632 z m 0.997603,0 v 2.6632 h 0.506751 v -2.6632 z m 1.023438,0 v 2.6632 h 0.520661 v -2.6632 z m 1.049272,0 v 2.6632 h 0.53656 v -2.6632 z m 1.079081,0 v 2.6632 h 0.548483 v -2.6632 z m 1.104916,0 v 2.6632 h 0.562393 v -2.6632 z m 1.132736,0 v 2.6632 h 0.576305 v -2.6632 z m 1.158571,0 v 2.6632 h 0.590216 v -2.6632 z m 1.186393,0 v 2.6632 h 0.602139 v -2.6632 z m 1.212228,0 v 2.6632 h 0.618037 v -2.6632 z m 1.242035,0 v 2.6632 h 0.62996 v -2.6632 z m 1.267871,0 v 2.6632 h 0.643871 v -2.6632 z m 1.293704,0 v 2.6632 h 0.657782 v -2.6632 z m 1.321527,0 v 2.6632 h 0.671692 v -2.6632 z m 1.349348,0 v 2.6632 H 113.4273 v -2.6632 z"
       id="path2" />
    <path
       style="color:#000000;fill:#000000;stroke:#ffffff;stroke-width:0.100854;stroke-dasharray:none;stroke-opacity:1;paint-order:normal"
       d="m 54.72173,172.78754 v 2.66515 h 24.473077 v -2.66515 z m 25.150732,0 v 2.66515 h 0.671693 v -2.66515 z m 1.335437,0 v 2.66515 h 0.657782 v -2.66515 z m 1.307615,0 v 2.66515 h 0.643871 v -2.66515 z m 1.281782,0 v 2.66515 h 0.62996 v -2.66515 z m 1.253959,0 v 2.66515 h 0.61605 v -2.66515 z m 1.226138,0 v 2.66515 h 0.604127 v -2.66515 z m 1.200304,0 v 2.66515 h 0.590215 v -2.66515 z m 1.172482,0 v 2.66515 h 0.576304 v -2.66515 z m 1.146647,0 v 2.66515 h 0.562394 v -2.66515 z m 1.118826,0 v 2.66515 h 0.548484 v -2.66515 z m 1.091005,0 v 2.66515 h 0.534572 v -2.66515 z m 1.06517,0 v 2.66515 h 0.520662 v -2.66515 z m 1.035361,0 v 2.66515 h 0.508738 v -2.66515 z m 1.011514,0 v 2.66515 h 0.494827 v -2.66515 z m 0.981705,0 v 2.66515 h 0.482904 v -2.66515 z m 0.955872,0 v 2.66515 h 0.468992 v -2.66515 z m 0.930036,0 v 2.66515 h 0.453095 v -2.66515 z m 0.900228,0 v 2.66515 h 0.44117 v -2.66515 z m 0.874393,0 v 2.66515 h 0.427264 v -2.66515 z m 0.848564,0 v 2.66515 h 0.41335 v -2.66515 z m 0.82073,0 v 2.66515 h 0.39944 v -2.66515 z m 0.79292,0 v 2.66515 h 0.38552 v -2.66515 z m 0.76509,0 v 2.66515 h 0.37361 v -2.66515 z m 0.73926,0 v 2.66515 h 0.3597 v -2.66515 z m 0.71144,0 v 2.66515 h 0.34578 v -2.66515 z m 0.68561,0 v 2.66515 h 0.33187 v -2.66515 z m 0.65777,0 v 2.66515 h 0.31797 v -2.66515 z m 0.62996,0 v 2.66515 h 0.30406 v -2.66515 z m 0.60215,0 v 2.66515 h 0.29212 v -2.66515 z m 0.5763,0 v 2.66515 h 0.27821 v -2.66515 z m 0.55047,0 v 2.66515 h 0.26431 v -2.66515 z m 0.52066,0 v 2.66515 h 0.25039 v -2.66515 z m 0.49483,0 v 2.66515 h 0.23847 v -2.66515 z m 0.469,0 v 2.66515 h 0.22257 v -2.66515 z m 0.43918,0 v 2.66515 h 0.21065 v -2.66515 z m 0.41335,0 v 2.66515 h 0.19674 v -2.66515 z m 0.38752,0 v 2.66515 h 0.18282 v -2.66515 z m 0.35968,0 v 2.66515 h 0.16892 v -2.66515 z m 0.33187,0 v 2.66515 h 0.15502 v -2.66515 z m 0.30406,0 v 2.66515 h 0.14308 v -2.66515 z m 0.27821,0 v 2.66515 h 0.12917 v -2.66515 z m 0.25039,0 v 2.66515 h 0.11526 v -2.66515 z m 0.22457,0 v 2.66515 h 0.10134 v -2.66515 z m 0.19674,0 v 2.66515 h 0.0874 v -2.66515 z m 0.16891,0 v 2.66515 h 0.0755 v -2.66515 z m 0.14309,0 v 2.66515 h 0.0616 v -2.66515 z m 0.11526,0 v 2.66515 h 0.0477 v -2.66515 z m 0.0874,0 v 2.66515 h 0.0338 v -2.66515 z m 0.0616,0 v 2.66515 h 0.0198 v -2.66515 z m 0.0338,0 v 2.66515 h 0.006 v -2.66515 z"
       id="path2-5" />
  </g>
</svg>
